<mxfile host="app.diagrams.net" agent="Mozilla/5.0 (Windows NT 10.0; Win64; x64) AppleWebKit/537.36 (KHTML, like Gecko) Chrome/132.0.0.0 Safari/537.36" version="26.0.11">
  <diagram id="C5RBs43oDa-KdzZeNtuy" name="Page-1">
    <mxGraphModel dx="1593" dy="706" grid="1" gridSize="10" guides="1" tooltips="1" connect="1" arrows="1" fold="1" page="1" pageScale="1" pageWidth="827" pageHeight="1169" math="0" shadow="0">
      <root>
        <mxCell id="WIyWlLk6GJQsqaUBKTNV-0" />
        <mxCell id="WIyWlLk6GJQsqaUBKTNV-1" parent="WIyWlLk6GJQsqaUBKTNV-0" />
        <mxCell id="0nZKB-xrsCa42AyGfKCq-1" value="&lt;p style=&quot;margin:0px;margin-top:4px;text-align:center;&quot;&gt;&lt;i&gt;&amp;lt;&amp;lt;Interface&amp;gt;&amp;gt;&lt;/i&gt;&lt;br&gt;&lt;b&gt;PaymentService&lt;/b&gt;&lt;/p&gt;&lt;hr size=&quot;1&quot; style=&quot;border-style:solid;&quot;&gt;&lt;p style=&quot;margin:0px;margin-left:4px;&quot;&gt;&lt;/p&gt;&lt;p style=&quot;margin:0px;margin-left:4px;&quot;&gt;+ void getTransactionStatus(TransactionDTO transactionDTO)&lt;br&gt;+ method2(Type, Type):&lt;/p&gt;" style="verticalAlign=top;align=left;overflow=fill;html=1;whiteSpace=wrap;" vertex="1" parent="WIyWlLk6GJQsqaUBKTNV-1">
          <mxGeometry x="30" y="270" width="270" height="140" as="geometry" />
        </mxCell>
        <mxCell id="0nZKB-xrsCa42AyGfKCq-2" value="Implements" style="endArrow=open;endSize=12;dashed=1;html=1;rounded=0;entryX=0.595;entryY=-0.007;entryDx=0;entryDy=0;entryPerimeter=0;exitX=0.081;exitY=1.023;exitDx=0;exitDy=0;exitPerimeter=0;" edge="1" parent="WIyWlLk6GJQsqaUBKTNV-1" source="0nZKB-xrsCa42AyGfKCq-6" target="0nZKB-xrsCa42AyGfKCq-1">
          <mxGeometry width="160" relative="1" as="geometry">
            <mxPoint x="300" y="90" as="sourcePoint" />
            <mxPoint x="370" y="230" as="targetPoint" />
          </mxGeometry>
        </mxCell>
        <mxCell id="0nZKB-xrsCa42AyGfKCq-3" value="PaymentServiceImpl" style="swimlane;fontStyle=1;align=center;verticalAlign=top;childLayout=stackLayout;horizontal=1;startSize=26;horizontalStack=0;resizeParent=1;resizeParentMax=0;resizeLast=0;collapsible=1;marginBottom=0;whiteSpace=wrap;html=1;" vertex="1" parent="WIyWlLk6GJQsqaUBKTNV-1">
          <mxGeometry x="300" y="40" width="260" height="120" as="geometry" />
        </mxCell>
        <mxCell id="0nZKB-xrsCa42AyGfKCq-5" value="" style="line;strokeWidth=1;fillColor=none;align=left;verticalAlign=middle;spacingTop=-1;spacingLeft=3;spacingRight=3;rotatable=0;labelPosition=right;points=[];portConstraint=eastwest;strokeColor=inherit;" vertex="1" parent="0nZKB-xrsCa42AyGfKCq-3">
          <mxGeometry y="26" width="260" height="8" as="geometry" />
        </mxCell>
        <mxCell id="0nZKB-xrsCa42AyGfKCq-6" value="+ void getTransactionStatus(TransactionDTO transactionDTO)" style="text;strokeColor=none;fillColor=none;align=left;verticalAlign=top;spacingLeft=4;spacingRight=4;overflow=hidden;rotatable=0;points=[[0,0.5],[1,0.5]];portConstraint=eastwest;whiteSpace=wrap;html=1;" vertex="1" parent="0nZKB-xrsCa42AyGfKCq-3">
          <mxGeometry y="34" width="260" height="86" as="geometry" />
        </mxCell>
        <mxCell id="0nZKB-xrsCa42AyGfKCq-7" value="TransactionRepository" style="swimlane;fontStyle=1;align=center;verticalAlign=top;childLayout=stackLayout;horizontal=1;startSize=26;horizontalStack=0;resizeParent=1;resizeParentMax=0;resizeLast=0;collapsible=1;marginBottom=0;whiteSpace=wrap;html=1;" vertex="1" parent="WIyWlLk6GJQsqaUBKTNV-1">
          <mxGeometry x="360" y="250" width="230" height="180" as="geometry" />
        </mxCell>
        <mxCell id="0nZKB-xrsCa42AyGfKCq-9" value="" style="line;strokeWidth=1;fillColor=none;align=left;verticalAlign=middle;spacingTop=-1;spacingLeft=3;spacingRight=3;rotatable=0;labelPosition=right;points=[];portConstraint=eastwest;strokeColor=inherit;" vertex="1" parent="0nZKB-xrsCa42AyGfKCq-7">
          <mxGeometry y="26" width="230" height="8" as="geometry" />
        </mxCell>
        <mxCell id="0nZKB-xrsCa42AyGfKCq-10" value="+ List&amp;lt;Transaction&amp;gt; findByCustomerId(Long customerId)&lt;div&gt;+ List&amp;lt;Transaction&amp;gt; findByMerchantId(Long merchantId)&lt;/div&gt;" style="text;strokeColor=none;fillColor=none;align=left;verticalAlign=top;spacingLeft=4;spacingRight=4;overflow=hidden;rotatable=0;points=[[0,0.5],[1,0.5]];portConstraint=eastwest;whiteSpace=wrap;html=1;" vertex="1" parent="0nZKB-xrsCa42AyGfKCq-7">
          <mxGeometry y="34" width="230" height="146" as="geometry" />
        </mxCell>
        <mxCell id="0nZKB-xrsCa42AyGfKCq-11" value="uses" style="html=1;verticalAlign=bottom;endArrow=open;dashed=1;endSize=8;curved=0;rounded=0;exitX=0.473;exitY=1.047;exitDx=0;exitDy=0;exitPerimeter=0;entryX=0.391;entryY=0;entryDx=0;entryDy=0;entryPerimeter=0;" edge="1" parent="WIyWlLk6GJQsqaUBKTNV-1" source="0nZKB-xrsCa42AyGfKCq-6" target="0nZKB-xrsCa42AyGfKCq-7">
          <mxGeometry relative="1" as="geometry">
            <mxPoint x="380" y="130" as="sourcePoint" />
            <mxPoint x="300" y="130" as="targetPoint" />
          </mxGeometry>
        </mxCell>
        <mxCell id="0nZKB-xrsCa42AyGfKCq-12" value="Transaction" style="swimlane;fontStyle=1;align=center;verticalAlign=top;childLayout=stackLayout;horizontal=1;startSize=26;horizontalStack=0;resizeParent=1;resizeParentMax=0;resizeLast=0;collapsible=1;marginBottom=0;whiteSpace=wrap;html=1;" vertex="1" parent="WIyWlLk6GJQsqaUBKTNV-1">
          <mxGeometry x="210" y="499" width="280" height="360" as="geometry" />
        </mxCell>
        <mxCell id="0nZKB-xrsCa42AyGfKCq-13" value="- Long transactionId&lt;div&gt;&lt;br&gt;&lt;/div&gt;&lt;div&gt;- Long merchantId&lt;/div&gt;&lt;div&gt;- Long customerId&lt;/div&gt;&lt;div&gt;- Date transactionDate&lt;/div&gt;&lt;div&gt;+ Double transactionAmount&amp;nbsp;&lt;/div&gt;&lt;div&gt;+ Boolean isPossible&amp;nbsp;&lt;/div&gt;&lt;div&gt;+ Long token&lt;/div&gt;&lt;div&gt;&lt;br&gt;&lt;/div&gt;&lt;div&gt;&lt;br&gt;&lt;/div&gt;" style="text;strokeColor=none;fillColor=none;align=left;verticalAlign=top;spacingLeft=4;spacingRight=4;overflow=hidden;rotatable=0;points=[[0,0.5],[1,0.5]];portConstraint=eastwest;whiteSpace=wrap;html=1;" vertex="1" parent="0nZKB-xrsCa42AyGfKCq-12">
          <mxGeometry y="26" width="280" height="194" as="geometry" />
        </mxCell>
        <mxCell id="0nZKB-xrsCa42AyGfKCq-14" value="" style="line;strokeWidth=1;fillColor=none;align=left;verticalAlign=middle;spacingTop=-1;spacingLeft=3;spacingRight=3;rotatable=0;labelPosition=right;points=[];portConstraint=eastwest;strokeColor=inherit;" vertex="1" parent="0nZKB-xrsCa42AyGfKCq-12">
          <mxGeometry y="220" width="280" height="10" as="geometry" />
        </mxCell>
        <mxCell id="0nZKB-xrsCa42AyGfKCq-15" value="+ method(type): type" style="text;strokeColor=none;fillColor=none;align=left;verticalAlign=top;spacingLeft=4;spacingRight=4;overflow=hidden;rotatable=0;points=[[0,0.5],[1,0.5]];portConstraint=eastwest;whiteSpace=wrap;html=1;" vertex="1" parent="0nZKB-xrsCa42AyGfKCq-12">
          <mxGeometry y="230" width="280" height="130" as="geometry" />
        </mxCell>
      </root>
    </mxGraphModel>
  </diagram>
</mxfile>
